<?xml version="1.0" encoding="UTF-8"?><svg id="Capa_1" xmlns="http://www.w3.org/2000/svg" viewBox="0 0 525.32 525.9"><defs><style>.cls-1{fill:#ffca3b;}</style></defs><path class="cls-1" d="m263.36,525.9c-2.29-1.11-2.06-2.7-2.43-3.97-6.01-20.88-12.14-41.72-19.36-62.22-6.52-18.53-13.78-36.76-22.7-54.28-11.44-22.45-25.45-43.05-43.76-60.54-16.37-15.65-35.06-27.94-55.19-38.15-21.31-10.8-43.59-19.19-66.23-26.7-16.85-5.59-33.87-10.61-50.96-15.4-1.07-.3-2.41-.22-2.74-2.12,2.34-.69,4.71-1.41,7.1-2.09,29.9-8.47,59.58-17.62,88.31-29.58,12.74-5.3,25.13-11.3,37.16-18.08,33.84-19.05,60.3-45.45,79.46-79.23,11.34-19.99,20.28-41.04,28.01-62.63,7.49-20.9,13.98-42.12,19.97-63.49.65-2.31.74-5,3.21-7.41,1.33,4.58,2.47,8.52,3.61,12.46,8.11,28.07,16.78,55.95,28.02,82.95,5.03,12.09,10.67,23.89,16.98,35.37,19.66,35.8,47.38,63.49,83.14,83.2,20.74,11.43,42.52,20.4,64.82,28.21,20.95,7.35,42.21,13.67,63.58,19.64.67.19,1.31.45,1.95.66-.09,1.58-1.25,1.77-2.39,2.09-25.43,7.08-50.7,14.69-75.43,23.95-18.62,6.97-36.76,14.97-54.14,24.7-34.33,19.23-61.08,45.95-80.38,80.23-11.97,21.26-21.21,43.7-29.29,66.65-7.29,20.73-13.49,41.79-19.5,62.91-.25.89-.52,1.78-.83,2.86Z"/></svg>