<?xml version="1.0" encoding="UTF-8"?><svg id="Capa_3" xmlns="http://www.w3.org/2000/svg" viewBox="0 0 221.51 224.16"><defs><style>.cls-1{fill:#eec74d;}</style></defs><path class="cls-1" d="M209.74,71.53c3.56-3.21,7.65-5.87,10.99-10.26-2.56,.3-4.57,.5-6.57,.79-13.89,1.99-27.79,3.6-41.83,4.19-5.86,.24-11.55,.06-17.1-.51-.48-3.53-.82-7.12-.96-10.79-.51-13.36,.26-26.65,1.43-39.94,.42-4.77,1.6-9.51,1.05-15-1.67,1.97-3.01,3.48-4.27,5.05-8.81,10.92-17.89,21.57-27.76,31.57-4.79,4.84-9.8,9.11-15.04,12.85-5.13-3.38-10.09-7.25-14.85-11.66-10.81-10.02-20.7-20.88-30.45-31.88-.98-1.11-1.43-3.07-3.85-2.6,.3,2.2,.59,4.4,.91,6.6,2.39,16.16,4.28,32.34,4.01,48.73-.05,2.98-.21,5.91-.49,8.81-5.29,.76-10.73,1.15-16.35,1.16-14.74,.03-29.38-1.18-44.01-2.59-1.48-.14-3.14-1.27-4.59,.72,1.72,1.4,3.43,2.82,5.16,4.21,12.76,10.2,25.17,20.76,36.13,32.93,2.69,2.99,5.17,6.07,7.45,9.23-1.93,2.88-4.01,5.71-6.29,8.46-8.96,10.86-18.98,20.62-29.48,29.93-3.81,3.38-7.61,6.76-12.43,11.05,3.46-.46,5.49-.72,7.52-1.01,15.94-2.25,31.9-4.21,48.05-4.17,3.55,.01,7.04,.2,10.48,.52,.33,2.53,.6,5.09,.75,7.69,.84,14.05,.16,28.03-1.19,42-.49,5.07-.96,10.13-1.57,16.56,2.22-2.7,3.53-4.27,4.82-5.86,10.13-12.51,20.48-24.82,32.33-35.79,3.35-3.1,6.82-5.95,10.38-8.53,3.4,2.28,6.73,4.78,9.95,7.54,3.49,2.99,6.93,6.04,10.29,9.17,10.06,9.37,18.94,19.85,28.13,30.31,1.35-1.85,.74-2.94,.58-4.04-2.38-16.38-4.46-32.78-4.51-49.38-.01-3.93,.19-7.78,.57-11.56,3.05-.4,6.16-.66,9.33-.79,4.59-.19,9.19-.3,13.78-.3,13.75,0,27.39,1.62,41.25,3.02-.27-2.27-1.46-2.66-2.33-3.35-12.9-10.37-25.6-20.95-36.95-33.07-3.29-3.51-6.28-7.13-9-10.87,2.47-3.72,5.21-7.34,8.24-10.86,8.73-10.13,18.35-19.32,28.26-28.26Z"/></svg>