<?xml version="1.0" encoding="UTF-8"?><svg id="Capa_3" xmlns="http://www.w3.org/2000/svg" viewBox="0 0 146.51 145.23"><defs><style>.cls-1{fill:#efc84d;}.cls-2{fill:#282828;}.cls-3{fill:#fff;stroke:#282828;stroke-miterlimit:10;}</style></defs><rect class="cls-2" y="9.76" width="135.48" height="135.48"/><rect class="cls-3" x="10.54" y=".5" width="135.48" height="135.48"/><g><path class="cls-2" d="M91.93,67.33c.6,.12,1.19,.27,1.77,.45,2.64,.82,4.92,2.23,6.84,4.22,1.84,1.91,3.24,4.1,4.12,6.61,.46,1.29,.75,2.62,.9,3.99,.14,1.29,.15,2.58,.05,3.87-.2,2.52-.83,4.93-2.03,7.17-1.36,2.55-3.26,4.62-5.64,6.26-2.05,1.41-4.28,2.42-6.66,3.12-1.32,.39-2.67,.67-4.04,.86-1.8,.26-3.61,.36-5.43,.36-10.13,0-20.27,0-30.4,0-.56,0-.5,.09-.5-.51,0-23.66,0-47.32,0-70.99,0-.16-.05-.33,.05-.49,.15,0,.3-.02,.46-.02,9.51,0,19.02,0,28.53,0,1.43,0,2.86,.03,4.29,.16,2.77,.25,5.48,.8,8.08,1.82,1.95,.77,3.77,1.76,5.41,3.07,3.03,2.43,4.97,5.55,5.85,9.32,.42,1.79,.53,3.61,.43,5.45-.1,1.89-.45,3.72-1.14,5.49-.84,2.14-2.13,3.98-3.79,5.56-1.88,1.79-4.07,3.07-6.5,3.94-.16,.06-.31,.11-.47,.16-.06,.02-.12,.04-.15,.12Zm-26.57,15.43c0,3.08,0,6.16,0,9.24,0,.1,0,.2,0,.31,0,.09,.04,.14,.13,.14,.09,0,.18,0,.27,0,4.63,0,9.25,0,13.88,0,1.27,0,2.53-.07,3.77-.33,1.12-.23,2.19-.59,3.2-1.14,1.59-.88,2.82-2.1,3.58-3.77,.4-.87,.63-1.78,.74-2.72,.16-1.37,.13-2.73-.18-4.08-.37-1.65-1.13-3.08-2.35-4.27-1.19-1.17-2.61-1.95-4.2-2.43-1.42-.43-2.87-.62-4.34-.62-4.69,0-9.38,0-14.07,0-.49,0-.42-.06-.42,.43,0,3.08,0,6.16,0,9.24Zm0-29.83c0,2.88,0,5.75,0,8.63,0,.4-.04,.37,.37,.37,4.33,0,8.66,0,12.99,0,1.26,0,2.5-.12,3.72-.4,1.04-.24,2.03-.6,2.95-1.15,1.59-.94,2.72-2.26,3.33-4.01,.31-.87,.46-1.78,.51-2.7,.06-1.09,0-2.17-.26-3.23-.46-1.97-1.53-3.55-3.2-4.69-1.09-.74-2.3-1.2-3.59-1.48-1.2-.26-2.42-.36-3.65-.36-4.24,0-8.48,0-12.72,0-.06,0-.13,0-.19,0q-.25,0-.26,.26c0,.09,0,.18,0,.27,0,2.84,0,5.67,0,8.51Z"/><path class="cls-1" d="M109.35,43.41c-.1-.07-.11-.18-.13-.28-.35-1.21-.71-2.42-1.13-3.61-.38-1.05-.8-2.07-1.32-3.05-.74-1.39-1.69-2.62-2.92-3.61-.91-.73-1.92-1.3-2.98-1.79-1.36-.62-2.77-1.1-4.2-1.53-.51-.16-1.03-.3-1.54-.45-.04-.01-.07-.02-.11-.03-.03,0-.05-.03-.04-.05,0-.02,.02-.05,.04-.05,.46-.14,.93-.27,1.39-.41,1.46-.43,2.89-.91,4.28-1.53,1.17-.52,2.28-1.15,3.27-1.97,1.15-.95,2.04-2.1,2.75-3.41,.66-1.21,1.16-2.5,1.6-3.8,.33-.98,.62-1.97,.91-2.96,.03-.1,.04-.2,.14-.28,.16,.56,.32,1.11,.49,1.66,.43,1.43,.91,2.84,1.52,4.21,.26,.58,.56,1.15,.88,1.7,1.06,1.79,2.52,3.17,4.34,4.17,1.19,.65,2.44,1.16,3.72,1.6,1.07,.37,2.16,.69,3.25,1,.05,.01,.1,.01,.13,.07,0,.07-.05,.06-.1,.08-1.24,.35-2.47,.72-3.69,1.15-1.09,.39-2.17,.83-3.19,1.39-1.41,.76-2.64,1.74-3.63,3.01-.66,.85-1.19,1.78-1.64,2.76-.62,1.33-1.09,2.72-1.52,4.12-.16,.54-.31,1.08-.47,1.62-.03,.1-.06,.19-.1,.29Z"/></g></svg>