<!--?xml version="1.0" standalone="no"?-->
              <svg id="sw-js-blob-svg" viewBox="0 0 100 100" xmlns="http://www.w3.org/2000/svg" version="1.1">
                    <defs> 
                        <linearGradient id="sw-gradient" x1="0" x2="1" y1="1" y2="0">
                            <stop id="stop1" stop-color="rgba(14.87, 13.098, 1.349, 1)" offset="0%"></stop>
                            <stop id="stop2" stop-color="rgba(189, 122, 247, 1)" offset="100%"></stop>
                        </linearGradient>
                    </defs>
                <path fill="url(#sw-gradient)" d="M13,-19.5C17.3,-14.8,21.6,-11.6,26.3,-6.4C31,-1.1,36.2,6.1,34.6,11.4C33.1,16.6,25,19.9,18.1,20.7C11.2,21.4,5.6,19.8,-0.4,20.3C-6.3,20.8,-12.6,23.4,-17.9,22.1C-23.2,20.8,-27.6,15.6,-31.5,9C-35.3,2.4,-38.6,-5.6,-35.4,-10.2C-32.2,-14.9,-22.4,-16.1,-15.4,-20C-8.4,-23.8,-4.2,-30.3,0.1,-30.4C4.4,-30.5,8.7,-24.3,13,-19.5Z" width="100%" height="100%" transform="translate(50 50)" stroke-width="0" style="transition: all 0.3s ease 0s;" stroke="url(#sw-gradient)"></path>
              </svg>