<!--?xml version="1.0" standalone="no"?-->
              <svg id="sw-js-blob-svg" viewBox="0 0 100 100" xmlns="http://www.w3.org/2000/svg" version="1.1">
                    <defs> 
                        <linearGradient id="sw-gradient" x1="0" x2="1" y1="1" y2="0">
                            <stop id="stop1" stop-color="rgba(14.87, 13.098, 1.349, 1)" offset="0%"></stop>
                            <stop id="stop2" stop-color="rgba(99, 184, 229, 1)" offset="100%"></stop>
                        </linearGradient>
                    </defs>
                <path fill="url(#sw-gradient)" d="M12.9,-17.7C18.8,-13.6,27,-12.5,30.9,-8.2C34.8,-3.9,34.4,3.6,30.5,8.1C26.5,12.6,18.9,14.1,13.2,19.6C7.5,25.1,3.8,34.8,-2.4,38.1C-8.7,41.5,-17.3,38.6,-19.6,32C-21.9,25.3,-17.9,14.9,-19,7.2C-20,-0.5,-26.2,-5.5,-26.9,-10.4C-27.5,-15.2,-22.7,-19.9,-17.3,-24.2C-11.9,-28.5,-6,-32.3,-1.2,-30.6C3.5,-28.9,7.1,-21.8,12.9,-17.7Z" width="100%" height="100%" transform="translate(50 50)" stroke-width="0" style="transition: all 0.3s ease 0s;" stroke="url(#sw-gradient)"></path>
              </svg>